# xmcd CD database file
#
# Track frame offsets:
#	150
#	26256
#	57339
#	91554
#	124934
#	151651
#	189899
#	214788
#	242826
#	257482
#
# Disc length: 4058 seconds
#
# Revision: 0
# Processed by: cddbd v1.5.2PL0 Copyright (c) Steve Scherf et al.
# Submitted via: CDex 1.79
#
DISCID=720fd80a
DTITLE=Bill Evans - Waltz For Debby [Box Set] [CD 5)
DYEAR=2011
DGENRE=Jazz
TTITLE0=Honeysuckle Rose (with Bob Brookmeyer)
TTITLE1=As Time Goes By (with Bob Brookmeyer)
TTITLE2=The Way You Look Tonight (with Bob Brookmeyer)
TTITLE3=It Could Happen To You (with Bob Brookmeyer)
TTITLE4=The Man I Love (with Bob Brookmeyer)
TTITLE5=I Got Rhythm (with Bob Brookmeyer)
TTITLE6=Blue Funk (with Cannonball Adderley)
TTITLE7=Now's The Time (with Hal McKusick)
TTITLE8=It Ain't Necessarily So (with Bill Potts)
TTITLE9=West Coast Ghost (with Charles Mingus Jazz Workshop)
EXTD=YEAR: 2011
EXTT0=
EXTT1=
EXTT2=
EXTT3=
EXTT4=
EXTT5=
EXTT6=
EXTT7=
EXTT8=
EXTT9=
PLAYORDER=
